<?xml version="1.0"?>
<svg xmlns="http://www.w3.org/2000/svg" xmlns:xlink="http://www.w3.org/1999/xlink" xmlns:svgjs="http://svgjs.com/svgjs" version="1.1" width="512" height="512" x="0" y="0" viewBox="0 0 24 24" style="enable-background:new 0 0 512 512" xml:space="preserve" class=""><g><g xmlns="http://www.w3.org/2000/svg"><path d="m9.5 8h-8c-.827 0-1.5-.673-1.5-1.5v-5c0-.827.673-1.5 1.5-1.5h8c.827 0 1.5.673 1.5 1.5v5c0 .827-.673 1.5-1.5 1.5zm-8-7c-.275 0-.5.224-.5.5v5c0 .276.225.5.5.5h8c.275 0 .5-.224.5-.5v-5c0-.276-.225-.5-.5-.5z" fill="$primaryColor" data-original="#000000" style="" class=""/></g><g xmlns="http://www.w3.org/2000/svg"><path d="m9.5 24h-8c-.827 0-1.5-.673-1.5-1.5v-11c0-.827.673-1.5 1.5-1.5h8c.827 0 1.5.673 1.5 1.5v11c0 .827-.673 1.5-1.5 1.5zm-8-13c-.275 0-.5.224-.5.5v11c0 .276.225.5.5.5h8c.275 0 .5-.224.5-.5v-11c0-.276-.225-.5-.5-.5z" fill="$primaryColor" data-original="#000000" style="" class=""/></g><g xmlns="http://www.w3.org/2000/svg"><path d="m22.5 24h-8c-.827 0-1.5-.673-1.5-1.5v-5c0-.827.673-1.5 1.5-1.5h8c.827 0 1.5.673 1.5 1.5v5c0 .827-.673 1.5-1.5 1.5zm-8-7c-.275 0-.5.224-.5.5v5c0 .276.225.5.5.5h8c.275 0 .5-.224.5-.5v-5c0-.276-.225-.5-.5-.5z" fill="$primaryColor" data-original="#000000" style="" class=""/></g><g xmlns="http://www.w3.org/2000/svg"><path d="m22.5 14h-8c-.827 0-1.5-.673-1.5-1.5v-11c0-.827.673-1.5 1.5-1.5h8c.827 0 1.5.673 1.5 1.5v11c0 .827-.673 1.5-1.5 1.5zm-8-13c-.275 0-.5.224-.5.5v11c0 .276.225.5.5.5h8c.275 0 .5-.224.5-.5v-11c0-.276-.225-.5-.5-.5z" fill="$primaryColor" data-original="#000000" style="" class=""/></g></g></svg>
