<svg height="512pt" viewBox="-26 0 512 512" width="512pt" xmlns="http://www.w3.org/2000/svg"><path d="m329.066406 405.03125h130.382813l-59.0625-90.644531h44.296875l-66.441406-101.96875h36.910156l-138.40625-212.417969-79.652344 122.242188c-23.5-27.613282-43.132812-45.917969-45.179688-47.808594l-10.171874-9.390625-10.171876 9.390625c-5.371093 4.960937-131.570312 122.632812-131.570312 225.511718 0 73.089844 55.613281 133.433594 126.746094 140.949219v41.113281h-76.992188v29.992188h344.292969v-29.992188h-64.980469zm-73.234375 76.976562v-76.976562h43.242188v76.976562zm-225.839843-182.0625c0-74.183593 82.464843-163.976562 111.757812-193.53125 11.6875 11.773438 31.820312 33.113282 51.730469 59.199219 39.257812 51.429688 60.007812 97.878907 60.007812 134.332031 0 56.53125-42.199219 103.390626-96.75 110.738282v-41.765625l54.257813-54.257813-21.207032-21.207031-33.050781 33.050781v-59.769531h-29.992187v59.769531l-33.050782-33.050781-21.207031 21.210937 54.257813 54.257813v41.761719c-54.554688-7.347656-96.753906-54.203125-96.753906-110.738282zm292.910156-117.519531 66.441406 101.972657h-44.292969l59.058594 90.640624h-142.207031c13.664062-21.789062 21.582031-47.53125 21.582031-75.09375 0-52.929687-33.40625-109.773437-66.574219-153.171874l59.835938-91.835938 83.070312 127.488281zm-166.164063 299.582031v-41.113281c25.6875-2.714843 49.351563-12.320312 69.101563-26.925781v68.039062zm0 0"/></svg>