<svg height="512pt" viewBox="0 0 512 512" width="512pt" xmlns="http://www.w3.org/2000/svg"><path d="m502 0h-492c-5.523438 0-10 4.476562-10 10v492c0 5.523438 4.476562 10 10 10h294c5.523438 0 10-4.476562 10-10v-167.058594c7.988281-5.886718 15.054688-12.953125 20.941406-20.941406h157.058594v178h-108c-5.523438 0-10 4.476562-10 10s4.476562 10 10 10h118c5.523438 0 10-4.476562 10-10v-492c0-5.523438-4.476562-10-10-10zm-10 198h-157.058594c-5.882812-7.988281-12.953125-15.054688-20.941406-20.941406v-157.058594h178zm-236 136c-43.007812 0-78-34.988281-78-78s34.992188-78 78-78 78 34.988281 78 78-34.992188 78-78 78zm-236-116h145.667969c-4.9375 11.691406-7.667969 24.53125-7.667969 38s2.730469 26.308594 7.667969 38h-145.667969zm274-198v145.667969c-11.691406-4.9375-24.53125-7.667969-38-7.667969s-26.308594 2.730469-38 7.667969v-145.667969zm-96 0v157.058594c-7.988281 5.886718-15.054688 12.953125-20.941406 20.941406h-157.058594v-178zm-178 294h157.058594c5.882812 7.988281 12.953125 15.054688 20.941406 20.941406v157.058594h-178zm274 178h-76v-145.667969c11.691406 4.9375 24.53125 7.667969 38 7.667969s26.308594-2.730469 38-7.667969zm52.332031-198c4.9375-11.691406 7.667969-24.53125 7.667969-38s-2.730469-26.308594-7.667969-38h145.667969v76zm0 0"/><path d="m344 492c-2.628906 0-5.210938 1.070312-7.070312 2.929688-1.859376 1.859374-2.929688 4.441406-2.929688 7.070312s1.070312 5.210938 2.929688 7.070312c1.859374 1.859376 4.441406 2.929688 7.070312 2.929688s5.210938-1.070312 7.070312-2.929688c1.859376-1.859374 2.929688-4.441406 2.929688-7.070312s-1.070312-5.210938-2.929688-7.070312c-1.859374-1.859376-4.441406-2.929688-7.070312-2.929688zm0 0"/><path d="m256 202c-29.777344 0-54 24.226562-54 54s24.222656 54 54 54 54-24.226562 54-54-24.222656-54-54-54zm0 88c-18.746094 0-34-15.253906-34-34s15.253906-34 34-34 34 15.253906 34 34-15.253906 34-34 34zm0 0"/><path d="m256 246c-2.628906 0-5.210938 1.070312-7.070312 2.929688-1.859376 1.859374-2.929688 4.441406-2.929688 7.070312s1.070312 5.210938 2.929688 7.070312c1.859374 1.859376 4.441406 2.929688 7.070312 2.929688s5.210938-1.070312 7.070312-2.929688c1.859376-1.859374 2.929688-4.441406 2.929688-7.070312 0-2.640625-1.070312-5.210938-2.929688-7.070312-1.859374-1.859376-4.441406-2.929688-7.070312-2.929688zm0 0"/><path d="m256 143c5.523438 0 10-4.476562 10-10v-3c0-5.523438-4.476562-10-10-10s-10 4.476562-10 10v3c0 5.523438 4.476562 10 10 10zm0 0"/><path d="m256 57c5.523438 0 10-4.476562 10-10v-3c0-5.523438-4.476562-10-10-10s-10 4.476562-10 10v3c0 5.523438 4.476562 10 10 10zm0 0"/><path d="m256 100c5.523438 0 10-4.476562 10-10v-3c0-5.523438-4.476562-10-10-10s-10 4.476562-10 10v3c0 5.523438 4.476562 10 10 10zm0 0"/><path d="m425 246h-3c-5.523438 0-10 4.476562-10 10s4.476562 10 10 10h3c5.523438 0 10-4.476562 10-10s-4.476562-10-10-10zm0 0"/><path d="m382 246h-3c-5.523438 0-10 4.476562-10 10s4.476562 10 10 10h3c5.523438 0 10-4.476562 10-10s-4.476562-10-10-10zm0 0"/><path d="m468 246h-3c-5.523438 0-10 4.476562-10 10s4.476562 10 10 10h3c5.523438 0 10-4.476562 10-10s-4.476562-10-10-10zm0 0"/><path d="m256 412c-5.523438 0-10 4.476562-10 10v3c0 5.523438 4.476562 10 10 10s10-4.476562 10-10v-3c0-5.523438-4.476562-10-10-10zm0 0"/><path d="m246 379v3c0 5.523438 4.476562 10 10 10s10-4.476562 10-10v-3c0-5.523438-4.476562-10-10-10s-10 4.476562-10 10zm0 0"/><path d="m256 455c-5.523438 0-10 4.476562-10 10v3c0 5.523438 4.476562 10 10 10s10-4.476562 10-10v-3c0-5.523438-4.476562-10-10-10zm0 0"/><path d="m47 246h-3c-5.523438 0-10 4.476562-10 10s4.476562 10 10 10h3c5.523438 0 10-4.476562 10-10s-4.476562-10-10-10zm0 0"/><path d="m90 246h-3c-5.523438 0-10 4.476562-10 10s4.476562 10 10 10h3c5.523438 0 10-4.476562 10-10s-4.476562-10-10-10zm0 0"/><path d="m133 246h-3c-5.523438 0-10 4.476562-10 10s4.476562 10 10 10h3c5.523438 0 10-4.476562 10-10s-4.476562-10-10-10zm0 0"/><path d="m351 143.359375h16v13.640625c0 5.523438 4.476562 10 10 10s10-4.476562 10-10v-13.640625h32v13.640625c0 5.523438 4.476562 10 10 10s10-4.476562 10-10v-13.640625h16c3.253906 0 6.308594-1.582031 8.179688-4.246094 1.875-2.664062 2.332031-6.070312 1.230468-9.132812l-26-72.363281c-1.425781-3.96875-5.191406-6.617188-9.410156-6.617188s-7.984375 2.648438-9.410156 6.617188l-16.589844 46.167968-16.589844-46.167968c-1.425781-3.96875-5.191406-6.617188-9.410156-6.617188s-7.984375 2.648438-9.410156 6.617188l-26 72.363281c-1.101563 3.0625-.640625 6.46875 1.230468 9.132812 1.871094 2.664063 4.925782 4.246094 8.179688 4.246094zm78-52.785156 11.78125 32.785156h-23.5625zm-52 0 11.78125 32.785156h-23.5625zm0 0"/><path d="m404.898438 375.488281c3.90625-3.902343 3.90625-10.234375 0-14.140625s-10.238282-3.90625-14.144532 0l-9.929687 9.929688v-21.476563c0-5.523437-4.476563-10-10-10-5.519531 0-10 4.476563-10 10v21.476563l-9.925781-9.929688c-3.90625-3.90625-10.238282-3.90625-14.144532 0s-3.90625 10.238282 0 14.140625l27 27c1.953125 1.953125 4.511719 2.929688 7.070313 2.929688 2.558593 0 5.121093-.976563 7.070312-2.929688zm0 0"/><path d="m435.171875 400.582031c-5.523437 0-10 4.476563-10 10v21.472657l-9.929687-9.925782c-3.902344-3.90625-10.234376-3.90625-14.140626 0-3.90625 3.902344-3.90625 10.234375 0 14.140625l27 27c1.953126 1.953125 4.511719 2.929688 7.070313 2.929688s5.117187-.976563 7.070313-2.929688l27-27c3.90625-3.90625 3.90625-10.238281 0-14.140625-3.902344-3.90625-10.234376-3.90625-14.140626 0l-9.929687 9.925782v-21.472657c0-5.523437-4.476563-10-10-10zm0 0"/><path d="m69.753906 108.488281c1.953125 1.953125 4.511719 2.929688 7.070313 2.929688 2.5625 0 5.121093-.976563 7.074219-2.929688l27-27c3.902343-3.902343 3.902343-10.234375 0-14.140625-3.90625-3.90625-10.238282-3.90625-14.144532 0l-9.929687 9.929688v-21.476563c0-5.519531-4.476563-10-10-10-5.523438 0-10 4.480469-10 10v21.476563l-9.929688-9.929688c-3.902343-3.902344-10.234375-3.902344-14.140625 0-3.90625 3.90625-3.90625 10.238282 0 14.144532zm0 0"/><path d="m107.101562 142.269531 27 27c1.953126 1.953125 4.511719 2.929688 7.070313 2.929688s5.121094-.976563 7.070313-2.929688l27-27c3.90625-3.90625 3.90625-10.238281 0-14.140625-3.902344-3.90625-10.234376-3.90625-14.140626 0l-9.929687 9.925782v-21.472657c0-5.523437-4.476563-10-10-10s-10 4.476563-10 10v21.472657l-9.929687-9.925782c-3.902344-3.90625-10.234376-3.90625-14.140626 0-3.90625 3.902344-3.90625 10.234375 0 14.140625zm0 0"/><path d="m144.410156 351.617188c-1.425781-3.96875-5.191406-6.617188-9.410156-6.617188s-7.984375 2.648438-9.410156 6.617188l-16.589844 46.167968-16.589844-46.167968c-1.425781-3.96875-5.191406-6.617188-9.410156-6.617188s-7.984375 2.648438-9.410156 6.617188l-26 72.363281c-1.101563 3.0625-.640625 6.46875 1.230468 9.132812 1.871094 2.664063 4.921876 4.246094 8.179688 4.246094h16v13.640625c0 5.523438 4.476562 10 10 10s10-4.476562 10-10v-13.640625h32v13.640625c0 5.523438 4.476562 10 10 10s10-4.476562 10-10v-13.640625h16c3.253906 0 6.308594-1.582031 8.179688-4.246094 1.875-2.664062 2.332031-6.070312 1.230468-9.132812zm-73.191406 65.742187 11.78125-32.785156 11.78125 32.785156zm52 0 11.78125-32.785156 11.78125 32.785156zm0 0"/></svg>