<svg width="257" height="58" viewBox="0 0 257 58" fill="none" xmlns="http://www.w3.org/2000/svg">
<path d="M18.7069 49.406C15.7296 49.406 13.0616 48.9227 10.7029 47.956C8.34424 46.9893 6.44957 45.5587 5.01891 43.664C3.62691 41.7693 2.89224 39.488 2.81491 36.82H13.3709C13.5256 38.328 14.0476 39.488 14.9369 40.3C15.8262 41.0733 16.9862 41.46 18.4169 41.46C19.8862 41.46 21.0462 41.1313 21.8969 40.474C22.7476 39.778 23.1729 38.8307 23.1729 37.632C23.1729 36.6267 22.8249 35.7953 22.1289 35.138C21.4716 34.4807 20.6402 33.9393 19.6349 33.514C18.6682 33.0887 17.2762 32.6053 15.4589 32.064C12.8296 31.252 10.6836 30.44 9.02091 29.628C7.35824 28.816 5.92757 27.6173 4.72891 26.032C3.53024 24.4467 2.93091 22.378 2.93091 19.826C2.93091 16.0367 4.30357 13.0787 7.04891 10.952C9.79424 8.78667 13.3709 7.704 17.7789 7.704C22.2642 7.704 25.8796 8.78667 28.6249 10.952C31.3702 13.0787 32.8396 16.056 33.0329 19.884H22.3029C22.2256 18.5693 21.7422 17.5447 20.8529 16.81C19.9636 16.0367 18.8229 15.65 17.4309 15.65C16.2322 15.65 15.2656 15.9787 14.5309 16.636C13.7962 17.2547 13.4289 18.1633 13.4289 19.362C13.4289 20.6767 14.0476 21.7013 15.2849 22.436C16.5222 23.1707 18.4556 23.9633 21.0849 24.814C23.7142 25.7033 25.8409 26.554 27.4649 27.366C29.1276 28.178 30.5582 29.3573 31.7569 30.904C32.9556 32.4507 33.5549 34.442 33.5549 36.878C33.5549 39.198 32.9556 41.3053 31.7569 43.2C30.5969 45.0947 28.8956 46.6027 26.6529 47.724C24.4102 48.8453 21.7616 49.406 18.7069 49.406ZM95.6865 8.284L85.0725 49H73.0665L66.5705 22.204L59.8425 49H47.8365L37.5125 8.284H48.1265L53.9845 37.922L61.2345 8.284H72.1385L79.0985 37.922L85.0145 8.284H95.6865ZM124.266 49L110.578 31.02V49H100.66V8.284H110.578V26.148L124.15 8.284H135.808L120.032 28.236L136.388 49H124.266ZM160.358 49.406C156.53 49.406 153.011 48.5167 149.802 46.738C146.631 44.9593 144.099 42.4847 142.204 39.314C140.348 36.1047 139.42 32.5087 139.42 28.526C139.42 24.5433 140.348 20.9667 142.204 17.796C144.099 14.6253 146.631 12.1507 149.802 10.372C153.011 8.59333 156.53 7.704 160.358 7.704C164.186 7.704 167.685 8.59333 170.856 10.372C174.065 12.1507 176.579 14.6253 178.396 17.796C180.252 20.9667 181.18 24.5433 181.18 28.526C181.18 32.5087 180.252 36.1047 178.396 39.314C176.54 42.4847 174.027 44.9593 170.856 46.738C167.685 48.5167 164.186 49.406 160.358 49.406ZM160.358 40.358C163.606 40.358 166.197 39.2753 168.13 37.11C170.102 34.9447 171.088 32.0833 171.088 28.526C171.088 24.93 170.102 22.0687 168.13 19.942C166.197 17.7767 163.606 16.694 160.358 16.694C157.071 16.694 154.442 17.7573 152.47 19.884C150.537 22.0107 149.57 24.8913 149.57 28.526C149.57 32.122 150.537 35.0027 152.47 37.168C154.442 39.2947 157.071 40.358 160.358 40.358ZM201.952 8.284C206.244 8.284 209.994 9.13466 213.204 10.836C216.413 12.5373 218.888 14.9347 220.628 18.028C222.406 21.0827 223.296 24.6207 223.296 28.642C223.296 32.6247 222.406 36.1627 220.628 39.256C218.888 42.3493 216.394 44.7467 213.146 46.448C209.936 48.1493 206.205 49 201.952 49H186.698V8.284H201.952ZM201.314 40.416C205.064 40.416 207.984 39.3913 210.072 37.342C212.16 35.2927 213.204 32.3927 213.204 28.642C213.204 24.8913 212.16 21.972 210.072 19.884C207.984 17.796 205.064 16.752 201.314 16.752H196.616V40.416H201.314ZM238.756 16.23V24.466H252.038V32.122H238.756V41.054H253.778V49H228.838V8.284H253.778V16.23H238.756Z" fill="$primaryColor"/>
<circle cx="45" cy="13" r="9" fill="white"/>
<circle cx="88" cy="13" r="9" fill="white"/>
<circle cx="45" cy="15" r="5" fill="#86DF8F"/>
<circle cx="88" cy="15" r="5" fill="#FEDC83"/>
</svg>
