<?xml version="1.0" encoding="iso-8859-1"?>
<!-- Generator: Adobe Illustrator 19.0.0, SVG Export Plug-In . SVG Version: 6.00 Build 0)  -->
<svg version="1.1" id="Capa_1" xmlns="http://www.w3.org/2000/svg" xmlns:xlink="http://www.w3.org/1999/xlink" x="0px" y="0px"
	 viewBox="0 0 512 512" style="enable-background:new 0 0 512 512;" xml:space="preserve">
<g>
	<g>
		<path d="M485.043,387.264c-6.163-6.051-13.037-11.112-20.412-15.142C474.767,361.373,481,346.905,481,331
			c0-33.084-26.916-60-60-60s-60,26.916-60,60c0,15.965,6.28,30.482,16.484,41.243c-14.549,8.071-26.637,20.053-34.837,34.52
			c-9.685-14.122-22.728-25.766-37.97-33.775C320.77,359.222,331,338.789,331,316c0-41.355-33.645-75-75-75
			c-41.355,0-75,33.645-75,75c0,22.789,10.23,43.222,26.323,56.988c-15.242,8.009-28.285,19.653-37.97,33.775
			c-8.2-14.467-20.289-26.449-34.837-34.52C144.72,361.482,151,346.965,151,331c0-33.084-26.916-60-60-60s-60,26.916-60,60
			c0,15.905,6.233,30.374,16.369,41.122c-7.375,4.03-14.249,9.091-20.411,15.142C9.574,404.333,0,426.969,0,451v46
			c0,8.284,6.716,15,15,15h151h180h151c8.284,0,15-6.716,15-15v-46C512,426.969,502.427,404.333,485.043,387.264z M91,301
			c16.542,0,30,13.458,30,30s-13.458,30-30,30s-30-13.458-30-30S74.458,301,91,301z M151,466v16H30v-31c0-33.084,27.364-60,61-60
			c33.084,0,60,26.916,60,60V466z M256,271c24.813,0,45,20.187,45,45s-20.187,45-45,45s-45-20.187-45-45S231.187,271,256,271z
			 M331,482H181v-16c0-41.355,33.645-75,75-75c41.355,0,75,33.645,75,75V482z M421,301c16.542,0,30,13.458,30,30s-13.458,30-30,30
			s-30-13.458-30-30S404.458,301,421,301z M482,482H361v-16v-15c0-33.084,26.916-60,60-60c33.636,0,61,26.916,61,60V482z"/>
	</g>
</g>
<g>
	<g>
		<path d="M467,0H45C20.187,0,0,20.187,0,45v60c0,24.813,20.187,45,45,45h16v45c0,6.067,3.655,11.537,9.26,13.858
			c5.605,2.322,12.057,1.038,16.347-3.251L142.213,150h74.516l25.854,51.708C245.125,206.79,250.318,210,256,210
			s10.875-3.21,13.417-8.292L295.271,150h74.517l55.606,55.607c2.869,2.87,6.706,4.394,10.609,4.394
			c1.933,0,3.882-0.374,5.737-1.142c5.605-2.322,9.26-7.791,9.26-13.858v-45h16c24.813,0,45-20.187,45-45V45
			C512,20.187,491.813,0,467,0z M482,105c0,8.271-6.729,15-15,15h-31c-8.284,0-15,6.716-15,15v23.787l-34.394-34.393
			C383.794,121.58,379.979,120,376,120h-90c-5.682,0-10.875,3.21-13.417,8.292L256,161.459l-16.583-33.167
			C236.875,123.21,231.682,120,226,120h-90c-3.978,0-7.793,1.58-10.606,4.393L91,158.787V135c0-8.284-6.716-15-15-15H45
			c-8.271,0-15-6.729-15-15V45c0-8.271,6.729-15,15-15h422c8.271,0,15,6.729,15,15V105z"/>
	</g>
</g>
<g>
</g>
<g>
</g>
<g>
</g>
<g>
</g>
<g>
</g>
<g>
</g>
<g>
</g>
<g>
</g>
<g>
</g>
<g>
</g>
<g>
</g>
<g>
</g>
<g>
</g>
<g>
</g>
<g>
</g>
</svg>
